<?xml version="1.0" encoding="UTF-8" standalone="no"?>
<!DOCTYPE svg PUBLIC "-//W3C//DTD SVG 1.1//EN" "http://www.w3.org/Graphics/SVG/1.1/DTD/svg11.dtd">
<svg width="100%" height="100%" viewBox="0 0 584 244" version="1.1" xmlns="http://www.w3.org/2000/svg" xmlns:xlink="http://www.w3.org/1999/xlink" xml:space="preserve" xmlns:serif="http://www.serif.com/" style="fill-rule:evenodd;clip-rule:evenodd;stroke-linecap:round;stroke-linejoin:round;stroke-miterlimit:1.5;">
    <g transform="matrix(1,0,0,1,-108,-322.6)">
        <g transform="matrix(1,0,0,1,84.0492,-91.89)">
            <g transform="matrix(1,0,0,1,10.5314,-5.40026)">
                <g transform="matrix(1,0,0,1,-11.5314,-10.1706)">
                    <g transform="matrix(1,0,0,1,18.3128,15.7265)">
                        <g transform="matrix(1,0,0,1,223.057,600.62)">
                            <path d="M0,-69.432C-2.38,-69.432 -4.893,-69.289 -7.272,-68.857L-7.272,-40.537C-4.76,-40.394 -2.248,-40.394 0.265,-40.394C8.463,-40.394 15.339,-45.282 15.339,-55.057C15.339,-65.263 8.596,-69.432 0,-69.432M19.306,16.388C17.587,8.913 12.959,-3.737 8.596,-11.212C5.422,-16.819 1.322,-22.856 -4.628,-22.856C-5.554,-22.856 -6.479,-22.856 -7.272,-22.712L-7.272,16.388L-31.868,16.388L-31.868,-83.952C-24.066,-85.101 -9.256,-85.82 3.041,-85.82C24.331,-85.82 39.935,-77.338 39.935,-57.07C39.935,-43.125 31.075,-34.5 20.364,-31.482L20.364,-31.194C32,-24.293 39.273,-5.606 45.488,16.388L19.306,16.388Z" style="fill:rgb(35,146,255);fill-rule:nonzero;"/>
                        </g>
                        <g transform="matrix(1,0,0,1,-31.0589,192.99)">
                            <rect x="312.164" y="322.529" width="24.596" height="101.489" style="fill:rgb(35,146,255);"/>
                        </g>
                        <g transform="matrix(1,0,0,1,349.867,597.026)">
                            <path d="M0,-61.526L0,-39.675L32.793,-39.675L32.793,-20.269L0,-20.269L0,19.982L-24.596,19.982L-24.596,-81.508L34.115,-81.508L35.438,-61.526L0,-61.526Z" style="fill:rgb(35,146,255);fill-rule:nonzero;"/>
                        </g>
                        <g transform="matrix(1,0,0,1,458.56,515.519)">
                            <path d="M0,101.489L-38.348,101.489C-55.406,101.489 -59.373,91.283 -59.373,77.626L-59.373,0L-1.984,0L-0.662,19.981L-34.777,19.981L-34.777,38.957L-3.307,38.957L-3.307,58.363L-34.777,58.363L-34.777,70.87C-34.777,76.045 -33.191,81.507 -26.314,81.507L1.322,81.507L0,101.489Z" style="fill:rgb(35,146,255);fill-rule:nonzero;"/>
                        </g>
                        <g transform="matrix(1,0,0,1,139.131,632.733)">
                            <path d="M0,-177.863C-22.327,-165.203 -31.224,-147.109 -33.667,-121.924C-35.472,-103.319 -19.786,-81.716 -18.917,-69.492C-17.976,-56.264 -25.574,-46.231 -40.538,-43.565C-49.795,-41.916 -61.195,-42.933 -75.398,-54.902C-75.143,-34.181 -66.067,-15.01 -45.39,-7.627C-24.016,0 -2.936,-4.216 11.569,-16.952C31.395,-33.375 36.223,-58.239 21.071,-83.661C4.775,-111.019 -9.883,-131.924 0,-177.863" style="fill:rgb(250,144,82);fill-rule:nonzero;"/>
                        </g>
                        <g transform="matrix(1,0,0,1,30.6571,263.463)">
                            <path d="M44.994,232.96C44.997,232.924 44.994,232.96 44.994,232.96C44.183,234.216 43.369,235.469 42.549,236.719C38.65,242.663 34.554,248.414 30.298,254.105C24.635,261.679 17.301,271.274 18.166,281.079C18.912,285.907 21.788,289.979 25.697,292.809C28.69,294.683 32.079,295.771 35.595,296.205C39.625,296.703 43.567,296.449 47.427,295.105C53.294,292.204 55.672,289.13 56.528,284.655C56.808,283.575 56.716,282.043 56.716,282.043C56.675,281.603 56.644,281.271 56.592,280.832C56.486,279.939 56.337,279.051 56.155,278.171C55.951,277.184 55.705,276.207 55.428,275.239C55.378,275.065 54.996,273.816 55.189,274.419C55.035,273.937 54.872,273.457 54.704,272.98C54.064,271.16 53.337,269.372 52.569,267.602C52.569,267.602 48.706,258.742 47.333,254.328C45.184,247.428 44.263,240.168 44.994,232.96Z" style="fill:rgb(35,146,255);fill-rule:nonzero;"/>
                        </g>
                        <g transform="matrix(0.9657,0,0,0.965684,41.8325,253.863)">
                            <path d="M449.117,376.049C449.117,376.049 448.047,371.164 453.054,361.704C456.26,355.648 462.848,348.359 468.576,343.009C474.082,337.866 478.465,332.825 482.576,328.589C486.617,324.425 490.316,320.114 493.132,315.219C495.496,311.107 496.421,307.736 496.421,303.256C496.421,300.363 494.812,296.622 492.432,294.569C490.052,292.515 485.876,291.187 481.676,291.187C478.783,291.187 475.451,292.316 472.735,293.654C470.088,294.958 468.57,296.323 465.953,298.262C465.953,298.262 456.464,277.668 456.39,277.675C458.537,276.089 459.826,275.202 462.486,273.989C465.146,272.775 468.11,271.842 471.376,271.189C474.643,270.535 478.376,270.209 482.576,270.209C488.176,270.209 493.263,270.979 497.836,272.519C502.409,274.059 506.282,276.205 509.456,278.959C512.629,281.712 515.079,284.979 516.806,288.759C518.532,292.539 519.395,296.715 519.395,301.289C519.395,306.049 518.785,311.755 517.145,316.497C515.522,321.193 513.706,324.706 510.296,329.569C507.189,334 503.996,338.505 500.076,342.659C496.156,346.812 493.043,350.283 488.947,354.209L522.615,354.209L522.615,376.049L449.117,376.049Z" style="fill:rgb(250,144,82);fill-rule:nonzero;"/>
                        </g>
                    </g>
                    <g transform="matrix(1,0,0,1,-152.087,110.636)">
                        <g transform="matrix(64,0,0,64,631.792,403.943)">
                        </g>
                        <text x="355.729px" y="403.943px" style="font-family:'SFCompactRounded-Regular', 'SF Compact Rounded';font-size:64px;fill:rgb(35,146,255);">POWERED</text>
                    </g>
                </g>
                <g transform="matrix(1.29495,0,0,1.43382,-502.561,-269.955)">
                    <path d="M847.894,524.366C847.894,501.27 827.132,482.519 801.56,482.519L446.334,482.519C420.761,482.519 400,501.27 400,524.366L400,608.058C400,631.154 420.761,649.905 446.334,649.905L801.56,649.905C827.132,649.905 847.894,631.154 847.894,608.058L847.894,524.366Z" style="fill:none;stroke:rgb(35,146,255);stroke-width:2.93px;"/>
                </g>
            </g>
        </g>
    </g>
</svg>
