<?xml version="1.0" encoding="UTF-8" standalone="no"?>
<!DOCTYPE svg PUBLIC "-//W3C//DTD SVG 1.1//EN" "http://www.w3.org/Graphics/SVG/1.1/DTD/svg11.dtd">
<svg width="100%" height="100%" viewBox="0 0 584 244" version="1.1" xmlns="http://www.w3.org/2000/svg" xmlns:xlink="http://www.w3.org/1999/xlink" xml:space="preserve" xmlns:serif="http://www.serif.com/" style="fill-rule:evenodd;clip-rule:evenodd;stroke-linecap:round;stroke-linejoin:round;stroke-miterlimit:1.5;">
    <g transform="matrix(1,0,0,1,-28,-322.6)">
        <g transform="matrix(1,0,0,1,4.04919,-91.89)">
            <g transform="matrix(1,0,0,1,10.5314,-5.40026)">
                <g transform="matrix(1,0,0,1,-11.5314,-10.1706)">
                    <g transform="matrix(1,0,0,1,18.3128,15.7265)">
                        <g transform="matrix(1,0,0,1,223.057,600.62)">
                            <path d="M0,-69.432C-2.38,-69.432 -4.893,-69.289 -7.272,-68.857L-7.272,-40.537C-4.76,-40.394 -2.248,-40.394 0.265,-40.394C8.463,-40.394 15.339,-45.282 15.339,-55.057C15.339,-65.263 8.596,-69.432 0,-69.432M19.306,16.388C17.587,8.913 12.959,-3.737 8.596,-11.212C5.422,-16.819 1.322,-22.856 -4.628,-22.856C-5.554,-22.856 -6.479,-22.856 -7.272,-22.712L-7.272,16.388L-31.868,16.388L-31.868,-83.952C-24.066,-85.101 -9.256,-85.82 3.041,-85.82C24.331,-85.82 39.935,-77.338 39.935,-57.07C39.935,-43.125 31.075,-34.5 20.364,-31.482L20.364,-31.194C32,-24.293 39.273,-5.606 45.488,16.388L19.306,16.388Z" style="fill:rgb(35,146,255);fill-rule:nonzero;"/>
                        </g>
                        <g transform="matrix(1,0,0,1,-31.0589,192.99)">
                            <rect x="312.164" y="322.529" width="24.596" height="101.489" style="fill:rgb(35,146,255);"/>
                        </g>
                        <g transform="matrix(1,0,0,1,349.867,597.026)">
                            <path d="M0,-61.526L0,-39.675L32.793,-39.675L32.793,-20.269L0,-20.269L0,19.982L-24.596,19.982L-24.596,-81.508L34.115,-81.508L35.438,-61.526L0,-61.526Z" style="fill:rgb(35,146,255);fill-rule:nonzero;"/>
                        </g>
                        <g transform="matrix(1,0,0,1,458.56,515.519)">
                            <path d="M0,101.489L-38.348,101.489C-55.406,101.489 -59.373,91.283 -59.373,77.626L-59.373,0L-1.984,0L-0.662,19.981L-34.777,19.981L-34.777,38.957L-3.307,38.957L-3.307,58.363L-34.777,58.363L-34.777,70.87C-34.777,76.045 -33.191,81.507 -26.314,81.507L1.322,81.507L0,101.489Z" style="fill:rgb(35,146,255);fill-rule:nonzero;"/>
                        </g>
                        <g transform="matrix(1,0,0,1,139.131,632.733)">
                            <path d="M0,-177.863C-22.327,-165.203 -31.224,-147.109 -33.667,-121.924C-35.472,-103.319 -19.786,-81.716 -18.917,-69.492C-17.976,-56.264 -25.574,-46.231 -40.538,-43.565C-49.795,-41.916 -61.195,-42.933 -75.398,-54.902C-75.143,-34.181 -66.067,-15.01 -45.39,-7.627C-24.016,0 -2.936,-4.216 11.569,-16.952C31.395,-33.375 36.223,-58.239 21.071,-83.661C4.775,-111.019 -9.883,-131.924 0,-177.863" style="fill:rgb(250,144,82);fill-rule:nonzero;"/>
                        </g>
                        <g transform="matrix(1,0,0,1,30.6571,263.463)">
                            <path d="M44.994,232.96C44.997,232.924 44.994,232.96 44.994,232.96C44.183,234.216 43.369,235.469 42.549,236.719C38.65,242.663 34.554,248.414 30.298,254.105C24.635,261.679 17.301,271.274 18.166,281.079C18.912,285.907 21.788,289.979 25.697,292.809C28.69,294.683 32.079,295.771 35.595,296.205C39.625,296.703 43.567,296.449 47.427,295.105C53.294,292.204 55.672,289.13 56.528,284.655C56.808,283.575 56.716,282.043 56.716,282.043C56.675,281.603 56.644,281.271 56.592,280.832C56.486,279.939 56.337,279.051 56.155,278.171C55.951,277.184 55.705,276.207 55.428,275.239C55.378,275.065 54.996,273.816 55.189,274.419C55.035,273.937 54.872,273.457 54.704,272.98C54.064,271.16 53.337,269.372 52.569,267.602C52.569,267.602 48.706,258.742 47.333,254.328C45.184,247.428 44.263,240.168 44.994,232.96Z" style="fill:rgb(35,146,255);fill-rule:nonzero;"/>
                        </g>
                        <g transform="matrix(0.9657,0,0,0.965684,41.8325,253.863)">
                            <path d="M449.117,376.049C449.117,376.049 448.047,371.164 453.054,361.704C456.26,355.648 462.848,348.359 468.576,343.009C474.082,337.866 478.465,332.825 482.576,328.589C486.617,324.425 490.316,320.114 493.132,315.219C495.496,311.107 496.421,307.736 496.421,303.256C496.421,300.363 494.812,296.622 492.432,294.569C490.052,292.515 485.876,291.187 481.676,291.187C478.783,291.187 475.451,292.316 472.735,293.654C470.088,294.958 468.57,296.323 465.953,298.262C465.953,298.262 456.464,277.668 456.39,277.675C458.537,276.089 459.826,275.202 462.486,273.989C465.146,272.775 468.11,271.842 471.376,271.189C474.643,270.535 478.376,270.209 482.576,270.209C488.176,270.209 493.263,270.979 497.836,272.519C502.409,274.059 506.282,276.205 509.456,278.959C512.629,281.712 515.079,284.979 516.806,288.759C518.532,292.539 519.395,296.715 519.395,301.289C519.395,306.049 518.785,311.755 517.145,316.497C515.522,321.193 513.706,324.706 510.296,329.569C507.189,334 503.996,338.505 500.076,342.659C496.156,346.812 493.043,350.283 488.947,354.209L522.615,354.209L522.615,376.049L449.117,376.049Z" style="fill:rgb(250,144,82);fill-rule:nonzero;"/>
                        </g>
                    </g>
                    <g transform="matrix(1.24433,0,0,1.15557,-219.114,54.8082)">
                        <path d="M346.05,398.143C347.406,398.143 348.235,397.142 348.235,395.547L348.235,383.864L356.271,383.864C362.876,383.864 367.246,379.348 367.246,372.425C367.246,365.556 362.876,360.959 356.321,360.959L347.958,360.959C344.995,360.959 343.865,362.095 343.865,365.042L343.865,395.547C343.865,397.142 344.694,398.143 346.05,398.143ZM348.26,379.727L348.26,365.124L356.07,365.124C360.314,365.124 362.751,367.801 362.751,372.425C362.751,377.807 360.289,379.727 353.484,379.727L348.26,379.727Z" style="fill:rgb(35,146,255);fill-rule:nonzero;"/>
                        <path d="M371.39,382.323C371.39,392.464 376.488,398.657 385.102,398.657C393.59,398.657 398.814,392.464 398.814,382.323L398.814,376.887C398.814,366.584 393.59,360.175 385.102,360.175C376.664,360.175 371.39,366.584 371.39,376.887L371.39,382.323ZM375.785,376.887C375.785,369.18 379.351,364.42 385.102,364.42C390.828,364.42 394.419,369.18 394.419,376.887L394.419,382.323C394.419,389.868 390.828,394.438 385.102,394.438C379.351,394.438 375.785,389.868 375.785,382.323L375.785,376.887Z" style="fill:rgb(35,146,255);fill-rule:nonzero;"/>
                        <path d="M410.643,394.979C411.246,397.305 411.873,397.954 413.305,397.954C414.736,397.954 415.515,397.115 416.042,394.979L422.497,368.558L422.723,368.558L429.177,394.952C429.704,397.115 430.483,397.954 431.939,397.954C433.346,397.954 433.974,397.278 434.576,394.979L442.311,364.772C442.437,364.231 442.512,363.501 442.512,363.095C442.512,361.635 441.508,360.553 440.127,360.553C438.921,360.553 438.067,361.554 437.665,363.447L431.839,390.598L431.588,390.598L425.46,363.528C424.983,361.554 424.154,360.553 422.597,360.553C421.09,360.553 420.236,361.554 419.759,363.528L413.606,390.598L413.38,390.598L407.529,363.447C407.127,361.554 406.273,360.553 405.068,360.553C403.686,360.553 402.682,361.635 402.682,363.122C402.682,363.501 402.782,364.231 402.908,364.799L410.643,394.979Z" style="fill:rgb(35,146,255);fill-rule:nonzero;"/>
                        <path d="M447.686,393.87C447.686,396.737 448.841,397.873 451.729,397.873L466.27,397.873C467.651,397.873 468.53,397.088 468.53,395.79C468.53,394.492 467.651,393.654 466.295,393.654L452.056,393.654L452.056,381.106L465.416,381.106C466.772,381.106 467.626,380.349 467.626,379.051C467.626,377.753 466.772,376.968 465.416,376.968L452.056,376.968L452.056,365.178L466.295,365.178C467.651,365.178 468.53,364.366 468.53,363.068C468.53,361.77 467.651,360.959 466.295,360.959L451.729,360.959C448.841,360.959 447.686,362.095 447.686,364.961L447.686,393.87Z" style="fill:rgb(35,146,255);fill-rule:nonzero;"/>
                        <path d="M479.631,395.547L479.631,383.188L487.969,383.188L493.87,395.79C494.624,397.386 495.277,397.954 496.382,397.954C497.562,397.954 498.516,397.061 498.516,395.871C498.516,395.276 498.341,394.546 498.115,394.032L492.313,382.161C496.231,380.646 498.667,376.779 498.667,371.992C498.667,365.232 494.423,360.959 487.667,360.959L479.38,360.959C476.416,360.959 475.261,362.122 475.261,365.097L475.261,395.547C475.261,397.142 476.065,398.143 477.446,398.143C478.802,398.143 479.631,397.142 479.631,395.547ZM479.631,379.078L479.631,365.151L487.115,365.151C491.56,365.151 494.172,367.747 494.172,372.236C494.172,376.698 491.635,379.078 486.939,379.078L479.631,379.078Z" style="fill:rgb(35,146,255);fill-rule:nonzero;"/>
                        <path d="M505.724,393.87C505.724,396.737 506.879,397.873 509.767,397.873L524.308,397.873C525.69,397.873 526.569,397.088 526.569,395.79C526.569,394.492 525.69,393.654 524.334,393.654L510.094,393.654L510.094,381.106L523.455,381.106C524.811,381.106 525.665,380.349 525.665,379.051C525.665,377.753 524.811,376.968 523.455,376.968L510.094,376.968L510.094,365.178L524.334,365.178C525.69,365.178 526.569,364.366 526.569,363.068C526.569,361.77 525.69,360.959 524.334,360.959L509.767,360.959C506.879,360.959 505.724,362.095 505.724,364.961L505.724,393.87Z" style="fill:rgb(35,146,255);fill-rule:nonzero;"/>
                        <path d="M533.299,393.87C533.299,396.737 534.454,397.873 537.343,397.873L544.299,397.873C554.194,397.873 559.342,391.572 559.342,379.429C559.342,367.26 554.194,360.959 544.299,360.959L537.343,360.959C534.454,360.959 533.299,362.095 533.299,364.961L533.299,393.87ZM537.694,393.654L537.694,365.151L544.098,365.151C551.306,365.151 554.872,369.856 554.872,379.429C554.872,388.975 551.331,393.654 544.098,393.654L537.694,393.654Z" style="fill:rgb(35,146,255);fill-rule:nonzero;"/>
                    </g>
                </g>
                <g transform="matrix(1.29495,0,0,1.43382,-502.561,-269.955)">
                    <path d="M847.894,524.366C847.894,501.27 827.132,482.519 801.56,482.519L446.334,482.519C420.761,482.519 400,501.27 400,524.366L400,608.058C400,631.154 420.761,649.905 446.334,649.905L801.56,649.905C827.132,649.905 847.894,631.154 847.894,608.058L847.894,524.366Z" style="fill:none;stroke:rgb(35,146,255);stroke-width:2.93px;"/>
                </g>
            </g>
        </g>
    </g>
</svg>
